# xmcd
#
# Track frame offsets:
#	150
#	22060
#	44437
#	75888
#	104700
#	133755
#	160374
#	199123
#	222385
#	248686
#	279118
#	305165
#
# Disc length: 4384 seconds
#
# Revision: 1
# Processed by: cddbd v1.5.1PL0 Copyright (c) Steve Scherf et al.
# Submitted via: CDex 1.50Beta5
#
DISCID=aa111e0c
DTITLE=MISIA - MISIA GREATEST HITS
DYEAR=2002
DGENRE=Rock
TTITLE0=つつみ込むように…
TTITLE1=陽のあたる場所
TTITLE2=キスして抱きしめて
TTITLE3=INTO THE LIGHT
TTITLE4=GLORY DAY,THE
TTITLE5=BELIEVE
TTITLE6=忘れない日々
TTITLE7=sweetness
TTITLE8=It’s just love
TTITLE9=Escape
TTITLE10=Everything
TTITLE11=果てなく続くストーリー(Live version)
EXTD=
EXTT0=
EXTT1=
EXTT2=
EXTT3=
EXTT4=
EXTT5=
EXTT6=
EXTT7=
EXTT8=
EXTT9=
EXTT10=
EXTT11=
PLAYORDER=
